<svg xmlns="http://www.w3.org/2000/svg" viewBox="0 0 512 512" width="512" height="512" font-family="Georgia, 'Times New Roman', serif">
<defs><filter id="g" x="-60%" y="-60%" width="220%" height="220%">
    <feDropShadow dx="0" dy="0" stdDeviation="10" flood-color="#7dd3fc" flood-opacity="0.5"/>
  </filter><filter id="g2" x="-60%" y="-60%" width="220%" height="220%">
    <feDropShadow dx="0" dy="0" stdDeviation="10" flood-color="#a78bfa" flood-opacity="0.5"/>
  </filter><filter id="gg" x="-60%" y="-60%" width="220%" height="220%">
    <feDropShadow dx="0" dy="0" stdDeviation="10" flood-color="#f7c948" flood-opacity="0.5"/>
  </filter></defs>
<rect width="512" height="512" fill="#050508"/>
<circle cx="256" cy="300" r="240" fill="rgba(125,211,252,0.045)"/>
<circle cx="256" cy="300" r="180" fill="rgba(125,211,252,0.05)"/>

  <defs><clipPath id="hc"><path d="M256 364.6 C256 364.6 96.7 280.9 96.7 183.8 C96.7 127.0 139.9 97.3 183.1 97.3 C218.2 97.3 242.5 118.9 256.0 143.2 C269.5 118.9 293.8 97.3 328.9 97.3 C372.1 97.3 415.3 127.0 415.3 183.8 C415.3 280.9 256.0 364.6 256.0 364.6 Z"/></clipPath></defs>
  <path d="M256 364.6 C256 364.6 96.7 280.9 96.7 183.8 C96.7 127.0 139.9 97.3 183.1 97.3 C218.2 97.3 242.5 118.9 256.0 143.2 C269.5 118.9 293.8 97.3 328.9 97.3 C372.1 97.3 415.3 127.0 415.3 183.8 C415.3 280.9 256.0 364.6 256.0 364.6 Z"
    fill="#0a54a8" filter="url(#g2)"/>
  <g clip-path="url(#hc)">
    <rect x="240" y="80" width="32" height="300" fill="#f7c948"/>
    <rect x="80" y="222" width="352" height="30" fill="#f7c948"/>
  </g>


  <g>
    <rect x="32.32" y="32.32" width="79.36" height="79.36" rx="14.08"
      fill="rgba(125,211,252,0.10)" stroke="rgba(125,211,252,0.35)" stroke-width="2"/>
    <path d="M50.24 60.480000000000004 H93.75999999999999 M93.75999999999999 60.480000000000004 L50.24 83.52000000000001 H93.75999999999999"
      fill="none" stroke="#7dd3fc" stroke-width="14.08" stroke-linecap="butt" stroke-linejoin="miter"/>
  </g>
</svg>